# xmcd
#
# Track frame offsets:
#	182
#	21927
#	45765
#	66662
#	86112
#	97235
#	118662
#	133170
#	152505
#	161650
#
# Disc length: 2311 seconds
#
# Revision: 1
# Processed by: cddbd v1.5.2PL0 Copyright (c) Steve Scherf et al.
# Submitted via: audiograbber 1.83.01
#
DISCID=8709050a
DTITLE=NO coMMent - Óh, ti lányok, lányok...
DYEAR=1996
DGENRE=Pop
TTITLE0=Óh, ti lányok, lányok...
TTITLE1=Nincs út hozzád
TTITLE2=Rám vár az élet
TTITLE3=Mint buborékok az emeletröl
TTITLE4=Egyedül a tóparton
TTITLE5=Szegény kisfiú panaszai
TTITLE6=Könnyü lány
TTITLE7=Oszkár blues
TTITLE8=Leduda-dal
TTITLE9=Lökd ide a sört
EXTD=
EXTT0=
EXTT1=
EXTT2=
EXTT3=
EXTT4=
EXTT5=
EXTT6=
EXTT7=
EXTT8=
EXTT9=
PLAYORDER=
